<?xml version="1.0" standalone="no"?><!DOCTYPE svg PUBLIC "-//W3C//DTD SVG 1.1//EN" "http://www.w3.org/Graphics/SVG/1.1/DTD/svg11.dtd"><svg t="1648888165854" class="icon" viewBox="0 0 1024 1024" version="1.1" xmlns="http://www.w3.org/2000/svg" p-id="2366" width="16" height="16" xmlns:xlink="http://www.w3.org/1999/xlink"><defs><style type="text/css">@font-face { font-family: feedback-iconfont; src: url("//at.alicdn.com/t/font_1031158_u69w8yhxdu.woff2?t=1630033759944") format("woff2"), url("//at.alicdn.com/t/font_1031158_u69w8yhxdu.woff?t=1630033759944") format("woff"), url("//at.alicdn.com/t/font_1031158_u69w8yhxdu.ttf?t=1630033759944") format("truetype"); }
</style></defs><path d="M944.48 552.458667l-182.357333 330.666666a73.792 73.792 0 0 1-64.565334 38.325334h-362.133333a73.792 73.792 0 0 1-64.565333-38.325334l-182.357334-330.666666a75.338667 75.338667 0 0 1 0-72.682667l182.357334-330.666667a73.792 73.792 0 0 1 64.565333-38.325333h362.133333a73.792 73.792 0 0 1 64.565334 38.325333l182.357333 330.666667a75.338667 75.338667 0 0 1 0 72.682667z m-55.989333-31.146667a10.773333 10.773333 0 0 0 0-10.378667l-182.037334-330.666666a10.517333 10.517333 0 0 0-9.205333-5.482667H335.733333a10.517333 10.517333 0 0 0-9.205333 5.482667l-182.037333 330.666666a10.773333 10.773333 0 0 0 0 10.378667l182.037333 330.666667a10.517333 10.517333 0 0 0 9.205333 5.472h361.514667a10.517333 10.517333 0 0 0 9.205333-5.472l182.037334-330.666667zM513.738667 682.666667c-94.261333 0-170.666667-76.405333-170.666667-170.666667s76.405333-170.666667 170.666667-170.666667c94.250667 0 170.666667 76.405333 170.666666 170.666667s-76.416 170.666667-170.666666 170.666667z m0-64c58.912 0 106.666667-47.754667 106.666666-106.666667s-47.754667-106.666667-106.666666-106.666667-106.666667 47.754667-106.666667 106.666667 47.754667 106.666667 106.666667 106.666667z" p-id="2367"></path></svg>