<?xml version="1.0" standalone="no"?><!DOCTYPE svg PUBLIC "-//W3C//DTD SVG 1.1//EN" "http://www.w3.org/Graphics/SVG/1.1/DTD/svg11.dtd"><svg t="1646726607199" class="icon" viewBox="0 0 1024 1024" version="1.1" xmlns="http://www.w3.org/2000/svg" p-id="2463" width="32" height="32" xmlns:xlink="http://www.w3.org/1999/xlink"><defs><style type="text/css"></style></defs><path d="M654.7 887.2H369.3c-45.6 0-88.1-24.5-111-64L115.7 576.1c-22.8-39.5-22.8-88.6 0-128.1l142.6-247.1c22.8-39.5 65.3-64 111-64h285.3c45.7 0 88.2 24.5 111 64.1l142.7 247c22.8 39.5 22.8 88.6 0 128.1L765.6 823.2c-22.7 39.5-65.3 64-110.9 64zM369.3 222.1c-15.2 0-29.4 8.2-37.1 21.4L189.6 490.6c-7.6 13.2-7.6 29.6 0 42.8l142.7 247.1c7.6 13.2 21.8 21.4 37 21.4h285.3c15.2 0 29.5-8.2 37-21.3l142.7-247.1c7.6-13.2 7.6-29.6 0-42.8L691.7 243.5c-7.6-13.2-21.8-21.4-37-21.4H369.3zM512 661.3c-82.3 0-149.3-67-149.3-149.3s67-149.3 149.3-149.3 149.3 67 149.3 149.3-67 149.3-149.3 149.3z m0-213.3c-35.3 0-64 28.7-64 64s28.7 64 64 64 64-28.7 64-64-28.7-64-64-64z" p-id="2464"></path></svg>