<?xml version="1.0" standalone="no"?><!DOCTYPE svg PUBLIC "-//W3C//DTD SVG 1.1//EN" "http://www.w3.org/Graphics/SVG/1.1/DTD/svg11.dtd"><svg t="1648281882396" class="icon" viewBox="0 0 1024 1024" version="1.1" xmlns="http://www.w3.org/2000/svg" p-id="2564" width="12" height="12" xmlns:xlink="http://www.w3.org/1999/xlink"><defs><style type="text/css">@font-face { font-family: feedback-iconfont; src: url("//at.alicdn.com/t/font_1031158_u69w8yhxdu.woff2?t=1630033759944") format("woff2"), url("//at.alicdn.com/t/font_1031158_u69w8yhxdu.woff?t=1630033759944") format("woff"), url("//at.alicdn.com/t/font_1031158_u69w8yhxdu.ttf?t=1630033759944") format("truetype"); }
</style></defs><path d="M812.8 172.8l-294.4 294.4-291.2-294.4C214.4 160 192 160 179.2 172.8s-12.8 32 0 44.8l294.4 294.4-294.4 294.4c-12.8 12.8-12.8 32 0 44.8s32 12.8 44.8 0l294.4-294.4 294.4 294.4c12.8 12.8 32 12.8 44.8 0s12.8-32 0-44.8L566.4 512l294.4-294.4c12.8-12.8 12.8-32 0-44.8s-35.2-12.8-48 0z" fill="#909399" p-id="2565"></path></svg>