<?xml version="1.0" standalone="no"?><!DOCTYPE svg PUBLIC "-//W3C//DTD SVG 1.1//EN" "http://www.w3.org/Graphics/SVG/1.1/DTD/svg11.dtd"><svg t="1648030517044" class="icon" viewBox="0 0 1024 1024" version="1.1" xmlns="http://www.w3.org/2000/svg" p-id="3961" width="16" height="16" xmlns:xlink="http://www.w3.org/1999/xlink"><defs><style type="text/css">@font-face { font-family: feedback-iconfont; src: url("//at.alicdn.com/t/font_1031158_u69w8yhxdu.woff2?t=1630033759944") format("woff2"), url("//at.alicdn.com/t/font_1031158_u69w8yhxdu.woff?t=1630033759944") format("woff"), url("//at.alicdn.com/t/font_1031158_u69w8yhxdu.ttf?t=1630033759944") format("truetype"); }
</style></defs><path d="M172.9 536.9V201.8c0-16.5 13.5-29.9 30.2-29.9h448.8c16.7 0 30.2 13.4 30.2 29.9V537c0 16.5-13.5 29.9-30.2 29.9h-153c-15 0-27.2 12.2-27.2 27.2v5.5c0 15 12.2 27.2 27.2 27.2H682c33.3 0 60.4-26.8 60.4-59.9v-395c0-33.1-27-59.9-60.4-59.9H142.7c-16.7 0-30.2 13.4-30.2 29.9v424.9c0 33.1 27 59.9 60.4 59.9h30.2c15 0 27.2-12.2 27.2-27.2V594c0-15-12.2-27.2-27.2-27.2-16.7 0.1-30.2-13.3-30.2-29.9z" fill="" p-id="3962"></path><path d="M852.1 397.3h-30.2c-13.3 0-24.2 10.8-24.2 24.2V433c0 13.3 10.8 24.2 24.2 24.2 16.7 0 30.2 13.4 30.2 29.9v335.2c0 16.5-13.5 29.9-30.2 29.9H370.1c-16.7 0-30.2-13.4-30.2-29.9V487.1c0-16.5 13.5-29.9 30.2-29.9h159c13.3 0 24.2-10.8 24.2-24.2v-11.5c0-13.3-10.8-24.2-24.2-24.2H339.9c-33.3 0-60.4 26.8-60.4 59.9v395c0 33.1 27 59.9 60.4 59.9h512.2c33.3 0 60.4-26.8 60.4-59.9v-395c0-33.1-27-59.9-60.4-59.9z" fill="" p-id="3963"></path></svg>